<svg class="svg-icon" style="width: 1em; height: 1em;vertical-align: middle;fill: currentColor;overflow: hidden;" viewBox="0 0 1024 1024" version="1.1" xmlns="http://www.w3.org/2000/svg"><path d="M212.764444 771.034074c-8.912593 0-16.213333-7.205926-16.213333-16.213333l0-307.2c0-8.912593 7.205926-16.213333 16.213333-16.213333 8.912593 0 16.213333 7.205926 16.213333 16.213333l0 307.2C228.882963 763.733333 221.677037 771.034074 212.764444 771.034074L212.764444 771.034074z"  /><path d="M766.672593 430.459259l-134.637037 0c7.016296-29.202963 16.971852-84.574815 9.955556-141.558519-4.835556-39.158519-26.737778-68.171852-60.112593-79.54963-24.936296-8.438519-51.01037-4.645926-64.758519 9.386667-16.971852 17.066667-25.315556 49.777778-34.133333 84.29037-5.973333 23.324444-12.136296 47.502222-20.100741 60.965926-25.6 43.140741-90.548148 63.905185-91.211852 64.094815-1.706667 0.474074-3.034074 1.422222-4.361481 2.37037l-90.074074 0c-8.912593 0-16.213333 7.205926-16.213333 16.213333l0 308.148148c0 8.912593 7.205926 16.213333 16.213333 16.213333l90.642963 0c14.885926 7.774815 96.237037 48.165926 180.053333 48.165926l151.419259 0c26.358519 0 65.042963-15.17037 78.506667-37.167407 14.696296-24.462222 49.493333-265.671111 49.493333-294.779259C827.448889 452.077037 792.082963 430.459259 766.672593 430.459259L766.672593 430.459259zM750.364444 765.155556c-6.257778 10.05037-33.28 21.617778-50.915556 21.617778L548.02963 786.773333c-82.299259 0-166.21037-45.037037-167.063704-45.511111-2.275556-1.232593-4.645926-1.706667-7.016296-1.801481-1.327407-0.379259-2.74963-0.853333-4.171852-0.853333l-76.325926 0L293.451852 462.791111 369.777778 462.791111c3.792593 0 7.111111-1.517037 9.860741-3.697778 0.568889-0.094815 1.137778 0 1.706667-0.18963 3.128889-0.948148 77.368889-24.557037 109.416296-78.506667 10.334815-17.445926 16.782222-42.761481 23.608889-69.499259 7.016296-27.496296 14.980741-58.69037 25.78963-69.594074 3.697778-3.792593 16.782222-6.447407 31.383704-1.517037 12.420741 4.266667 33.943704 16.687407 38.4 52.811852 9.102222 74.05037-14.127407 148.100741-14.411852 148.859259-1.611852 4.93037-0.758519 10.334815 2.37037 14.506667 3.034074 4.171852 7.86963 6.637037 13.084444 6.637037l155.780741 0c9.765926 0 28.444444 9.481481 28.444444 24.462222C795.117037 518.637037 760.035556 745.14963 750.364444 765.155556L750.364444 765.155556z"  /></svg>